<?xml version="1.0"?>
<svg width="132" height="51" xmlns="http://www.w3.org/2000/svg" xmlns:svg="http://www.w3.org/2000/svg">
 <g class="layer">
  <title>Layer 1</title>
  <path d="m120.22,29.82c-0.45,-0.16 -1.48,-0.21 -3.41,-0.16c-0.11,-0.02 -0.22,0 -0.37,0.01c-0.42,0.06 -1.55,0.21 -2,-0.25c-0.19,-0.21 -0.25,-0.56 -0.16,-1.02c0.21,-1.19 1.75,-3.09 2.77,-4.34c0.81,-1 1.18,-1.46 1.25,-1.79c0.03,-0.19 -0.01,-0.38 -0.14,-0.52c-0.27,-0.33 -0.8,-0.3 -1.68,-0.26c-0.86,0.04 -1.93,0.09 -2.59,-0.26c-0.35,-0.19 -0.32,-0.65 -0.22,-1.4c0.07,-0.5 0.14,-0.97 -0.02,-1.36c-0.28,-0.68 -1.57,-0.55 -1.95,-0.49c-0.86,0.13 -1.49,1.3 -2.55,3.25c-1.39,2.58 -3.31,6.11 -6.66,8.9l-0.05,0.02c-0.05,0.02 -0.1,0.03 -0.15,0.05c-0.74,0.23 -1.27,0.28 -1.74,0.16c-0.22,-0.05 -0.41,-0.14 -0.31,-0.63c0.06,-0.33 0.14,-0.67 0.28,-0.93c0.31,-0.56 0.73,-1.27 1.21,-1.91c1.22,-1.61 2.45,-3.21 3.68,-4.81l2.7,-3.56l-0.85,-0.16c-0.13,-0.03 -0.26,-0.06 -0.39,-0.07c-1.59,-0.08 -3.24,-0.02 -4.91,0.17c-0.64,0.07 -1.04,0.41 -1.23,1.05l-0.11,0.38l0.56,0.21c0.11,0.05 0.22,0.08 0.33,0.14c0.28,0.12 0.45,0.25 0.19,0.83c-0.08,0.18 -0.18,0.35 -0.3,0.51l-0.62,0.83c-0.86,1.14 -1.72,2.29 -2.6,3.41l-0.49,0.64c-0.91,1.2 -2.06,2.69 -3.15,3.5c-0.6,0.44 -1.09,0.69 -1.57,0.8c-0.4,0.09 -0.71,0.06 -0.82,-0.08c-0.11,-0.12 -0.15,-0.46 0.08,-1.02c0.32,-0.78 0.78,-1.47 1.39,-2.25c1.08,-1.42 2.17,-2.82 3.24,-4.23l2.84,-3.72l0.3,-0.53l-0.61,-0.17c-0.07,-0.02 -0.15,-0.04 -0.25,-0.05c-1.7,-0.12 -3.51,-0.06 -5.35,0.17c-0.7,0.09 -0.86,0.49 -1.02,1.04l-0.11,0.38l0.66,0.24c0.29,0.11 0.45,0.23 0.5,0.37c0.06,0.19 -0.05,0.51 -0.32,0.92c-0.04,0.06 -0.08,0.12 -0.13,0.18c-0.12,0.13 -0.25,0.34 -0.47,0.7c-0.92,1.5 -3.09,5.04 -8.23,7.89c-0.91,0.51 -2.71,0.78 -3.65,-0.64c-0.1,-0.16 -0.1,-0.44 -0.09,-0.72l0,-0.21c0,-0.36 0.02,-0.71 0.07,-1.08c2.39,0.37 4.76,-0.11 7.04,-1.46c0.98,-0.57 1.74,-1.21 2.31,-1.94c0.7,-0.9 1.07,-1.9 1.09,-2.97c0.03,-0.79 -0.26,-1.5 -0.82,-1.99c-0.93,-0.8 -2.54,-0.99 -4.8,-0.56c-2.14,0.4 -4.38,2.07 -5.02,2.57c-1.8,1.42 -3.87,4.56 -4.16,7.6c-0.01,0.16 -0.06,0.25 -0.23,0.41l-0.13,0.12c-0.59,0.58 -1.42,1.37 -3.09,1.1c-0.22,-0.04 -0.5,-0.11 -0.61,-0.28c-0.1,-0.16 -0.06,-0.42 0,-0.62c0.17,-0.62 0.4,-1.15 0.68,-1.58c1.83,-2.83 9.11,-14.09 11.36,-17.46l0.36,-0.53l-0.76,-0.14c-0.1,-0.03 -0.19,-0.07 -0.31,-0.05c-1.82,0.04 -3.73,0.24 -5.84,0.61c-0.81,0.15 -0.99,0.78 -1.08,1.08l-0.11,0.41l0.71,0.2c0.18,0.04 0.34,0.08 0.49,0.14c0.18,0.08 0.29,0.17 0.34,0.28c0.06,0.15 0,0.34 -0.07,0.48c-0.09,0.23 -0.23,0.44 -0.37,0.64c-0.27,0.42 -1.14,1.78 -2.26,3.51c-1.85,2.9 -4.37,6.83 -5.89,9.14c-1.08,1.65 -4.78,4.28 -6.82,4.86c-1.67,0.47 -3.08,0 -5.42,-0.79c-0.32,-0.11 -0.66,-0.23 -1.02,-0.34c1.59,-2.93 3.39,-6.43 5.15,-9.83c4.46,-0.94 5.5,-0.33 5.75,-0.03c0.21,0.27 0.07,0.68 -0.08,0.99c-0.16,0.32 -0.12,0.65 0.1,0.88c0.23,0.23 0.59,0.26 0.92,0.1c0.3,-0.14 0.56,-0.34 0.73,-0.48c0.83,-0.68 1.66,-1.41 2.47,-2.16c0.89,-0.83 1.25,-1.58 1.08,-2.23c-0.17,-0.63 -0.81,-1.07 -1.9,-1.33c-1.65,-0.39 -4.73,0.22 -6.78,0.61c-0.16,0.03 -0.31,0.06 -0.45,0.09c1.67,-3.23 4.27,-8.22 5.06,-9.05c0.38,-0.06 1.88,0.11 3.34,0.26c3.89,0.41 9.76,1.04 13.67,0.32c2.95,-0.53 3.12,-2.72 3.18,-3.44c0,-0.07 0.01,-0.12 0.01,-0.14c0.09,-0.31 0.02,-0.62 -0.19,-0.83c-0.22,-0.23 -0.55,-0.31 -0.89,-0.22c-2.15,0.54 -4.23,0.79 -6.52,0.79l-0.12,0c-1.19,0 -3.73,-0.93 -6.41,-1.91c-3.19,-1.15 -6.81,-2.47 -9.32,-2.68c-10.78,-0.87 -19.8,4 -24.63,8.84c-2.03,2.03 -3.06,3.89 -3.05,5.5c0,1.01 0.41,1.93 1.21,2.71c1.13,1.1 2.96,1.72 5.62,1.89c3.85,0.25 8.08,-0.74 12.57,-2.91c0.19,-0.1 0.39,-0.2 0.59,-0.31l0.62,-0.33l-0.28,-0.82l-0.16,-0.26l-0.4,-0.05l-0.08,0.02c-0.15,0.04 -0.32,0.08 -0.47,0.12c-2.05,0.55 -3.97,0.84 -5.71,0.84l-0.08,0c-2.58,-0.02 -4.26,-0.55 -4.98,-1.59c-0.39,-0.55 -0.47,-1.22 -0.24,-1.97c0.76,-2.47 4.56,-5.45 9.24,-7.24c0.6,-0.23 6.01,-2.25 9.99,-1.85c3.2,0.32 7.02,1.71 9.74,2.78c-8.06,-0.67 -9.68,-0.44 -10.15,-0.12c-1.16,0.8 -2.09,2.84 -3.62,6.21c-1.42,3.13 -3.36,7.42 -6.39,12.56c-1.02,1.73 -2.04,3.33 -3.04,4.74c-5.49,-1.73 -11.57,-3.29 -15.12,-0.68c-2.5,1.83 -2.97,4.08 -2.93,5.65c0.08,2.56 1.53,4.77 2.32,5.29l0.19,0.13c5.1,3.52 11.41,1.41 18.79,-6.26l1.08,0.33c2.69,0.81 4.04,1.22 5.83,1.07c2.11,-0.17 4.62,-1.7 6.32,-3.13c0.11,1.18 0.75,1.96 1.96,2.38c0.92,0.32 1.88,0.28 2.78,0.18c1.82,-0.2 3.63,-1.53 4.24,-2.03l0.05,0.08c0.5,0.9 1.28,1.5 2.31,1.79c0.97,0.28 2,0.19 2.84,0.11c2.9,-0.27 4.7,-1.49 5.61,-2.27c0.09,0.99 0.67,1.72 1.65,2c1.02,0.28 2.1,0.18 3.33,-0.32c1.15,-0.45 2.12,-1.17 2.95,-1.85c-0.02,0.95 0.58,1.23 1.22,1.53l0.29,0.13c0.62,0.31 1.28,0.3 1.91,0.26c0.68,-0.04 1.38,-0.17 2.07,-0.39c0.52,-0.02 2.19,-0.35 3.56,-1.05c1,-0.51 2.07,-1.77 2.26,-2.11c0.11,-0.2 0.26,-0.39 0.4,-0.57c0.43,-0.57 1.16,-1.91 1.87,-3.2c0.62,-1.13 1.48,-2.7 1.63,-2.86c0.17,-0.05 0.17,-0.05 0.34,0.18c0.16,0.21 0.36,0.48 0.75,0.63c0.32,0.12 0.65,0.17 0.94,0.22c0.12,0.03 0.27,0.05 0.39,0.08c-0.1,0.12 -0.27,0.29 -0.41,0.45c-1.24,1.33 -3.82,4.1 -2.31,6.52c0.8,1.28 3.4,1.01 4.8,0.88l0.02,0l-0.07,0.21l0.81,-0.27c0.53,-0.17 1.59,-0.32 2.1,-0.38c0.3,-0.05 0.71,-0.05 0.92,0.17c0.24,0.25 0.22,0.72 0.16,1.07c-0.03,0.17 -0.07,0.35 -0.12,0.53c-0.32,0.96 -0.91,1.85 -1.81,2.72c-0.81,0.79 -1.78,1.49 -2.97,2.14c-1.87,1.03 -3.91,1.81 -6.42,2.49c-4.84,1.3 -9.96,1.9 -16.13,1.92c-2.19,0 -4.38,-0.05 -6.04,-0.1c-2.79,-0.08 -5.57,-0.19 -8.35,-0.3c-1.3,-0.05 -2.59,-0.11 -3.89,-0.17c-1.26,-0.06 -2.51,-0.12 -3.76,-0.17c-2.7,-0.11 -5.38,-0.2 -8.08,-0.29l-0.94,-0.03c-1.47,-0.05 -2.98,-0.1 -4.49,-0.1c-0.03,0 -0.07,0 -0.12,0c-2.89,0 -5.81,0.04 -8.69,0.12c-2.98,0.08 -6.03,0.37 -9.04,0.88c-4.51,0.76 -8.44,1.97 -12.02,3.71c-0.47,0.23 -0.93,0.47 -1.4,0.71l-1.6,0.82l1.05,0.29c0.58,0.17 1.18,0.27 1.76,0.38c0.43,0.08 0.85,0.16 1.28,0.26c1.03,0.25 1.99,0.56 2.85,0.92c0.61,0.25 1.19,0.56 1.8,0.89c0.27,0.15 0.54,0.29 0.81,0.44l0.22,0.11l0.2,-0.12c2.13,-1.24 4.48,-2.14 7.63,-2.92c3.83,-0.95 7.56,-1.36 10.39,-1.61c4.33,-0.39 8.68,-0.45 12.88,-0.52l0.66,0c2.21,-0.04 4.41,-0.04 6.61,-0.04l1.08,0c1.17,0 2.34,0 3.51,0.01c1.57,0 3.12,0.01 4.69,0c3.1,-0.01 6.21,-0.05 9.31,-0.08c2.55,-0.03 5.3,-0.1 8.08,-0.38c3.96,-0.4 7.46,-1.11 10.68,-2.17c3.05,-1.01 5.46,-2.18 7.58,-3.7c1.69,-1.21 2.93,-2.48 3.8,-3.91c0.75,-1.24 1.14,-2.37 1.18,-3.47c0.06,-1.46 -0.76,-2.05 -1.47,-2.3l-0.01,0.03zm-36.77,-4.47c-0.55,-0.06 -1.08,-0.17 -1.56,-0.36c1.05,-2.21 2.28,-3.39 4.03,-3.91c0.22,-0.06 0.4,-0.04 0.57,0.06c0.48,0.28 0.75,1.09 0.81,1.35c0.18,0.84 -0.11,1.56 -0.84,2.11c-0.86,0.63 -1.81,0.87 -3.01,0.75zm-44.54,5.09c0.72,-0.91 1.64,-1.26 2.76,-1.26c1.44,0 3.21,0.58 5.31,1.26c0.43,0.14 0.87,0.28 1.33,0.42l1.51,0.47c-5.95,7.42 -8.43,6.33 -9.63,5.8c-0.15,-0.06 -0.28,-0.12 -0.4,-0.16c-0.41,-0.14 -1.08,-1.06 -1.44,-2.29c-0.22,-0.77 -0.63,-2.74 0.56,-4.24l0,0z" fill="#361F0F" id="svg_1"/>
  <path d="m29,31.12c0.16,-0.22 1.2,-1.46 1.85,-2.24l0.23,-0.37l-0.51,-0.55l-0.31,0.14c-1.82,0.81 -3.25,1.33 -3.72,1.35l-0.27,0l-0.11,0.24c-0.41,0.86 -0.99,1.66 -1.73,2.36c-0.96,0.9 -1.87,1.34 -2.87,1.37c-0.79,0.04 -1.35,-0.35 -1.57,-1.14c-0.09,-0.33 -0.13,-0.69 -0.14,-1.04c0,-0.36 0.02,-0.72 0.06,-1.09c2.39,0.39 4.76,-0.11 7.05,-1.45c0.98,-0.57 1.73,-1.21 2.31,-1.94c0.7,-0.91 1.07,-1.9 1.08,-2.97c0.04,-0.79 -0.25,-1.5 -0.81,-1.99c-0.93,-0.81 -2.55,-1 -4.81,-0.57c-2.15,0.4 -4.38,2.07 -5.02,2.57c-1.8,1.42 -3.87,4.56 -4.16,7.6c-0.01,0.16 -0.07,0.25 -0.23,0.41l-0.13,0.12c-0.6,0.58 -1.42,1.37 -3.09,1.1c-0.22,-0.04 -0.5,-0.11 -0.61,-0.28c-0.1,-0.16 -0.05,-0.42 0,-0.62c0.18,-0.62 0.41,-1.15 0.69,-1.58c1.44,-2.23 10.3,-15.55 12.74,-19.19l0.36,-0.53l-0.77,-0.15c-0.09,-0.02 -0.19,-0.06 -0.31,-0.04c-1.81,0.04 -3.72,0.24 -5.83,0.61c-0.81,0.15 -0.99,0.78 -1.08,1.08l-0.12,0.41l0.71,0.19c0.18,0.05 0.34,0.08 0.49,0.15c0.19,0.08 0.3,0.17 0.34,0.28c0.06,0.14 0,0.34 -0.06,0.48c-0.1,0.22 -0.23,0.44 -0.37,0.64c-0.61,0.92 -1.22,1.84 -1.83,2.76l-2.43,3.67c-1.76,2.64 -3.52,5.29 -5.27,7.95c-1.14,1.75 -2.56,3.07 -4.33,4.03c-0.8,0.44 -1.62,0.72 -2.42,0.82l-0.2,0.02l-0.29,0.44c-0.39,0.59 -0.79,1.2 -1.11,1.83l-0.4,0.78l0.86,-0.17c2.18,-0.42 4.22,-1.44 6.23,-3.13c0.11,1.18 0.75,1.96 1.95,2.38c0.94,0.33 1.9,0.28 2.79,0.17c1.8,-0.19 3.61,-1.52 4.24,-2.02c0.02,0.03 0.03,0.06 0.04,0.08c0.51,0.9 1.29,1.51 2.32,1.8c0.83,0.23 1.76,0.27 2.86,0.1c3.1,-0.48 5.7,-2.12 7.73,-4.88l-0.02,0.01zm-6.64,-3.57c-0.55,-0.06 -1.07,-0.17 -1.55,-0.36c1.06,-2.01 3.37,-4.02 4.48,-4.15c0.21,-0.02 0.37,0.01 0.48,0.1c0.31,0.25 0.37,0.9 0.4,1.25c0.02,0.13 0.02,0.24 0.04,0.31c0.18,0.83 -0.11,1.55 -0.85,2.1c-0.85,0.63 -1.8,0.88 -3,0.75l0,0z" fill="#361F0F" id="svg_2"/>
  <path d="m131.96,9.07c-0.03,-0.45 -0.26,-0.84 -0.65,-1.06c-0.47,-0.28 -1.11,-0.27 -1.7,0.02l-2.22,1.09l1.03,-2.01c0.26,-0.52 0.26,-1.06 0,-1.49c-0.25,-0.41 -0.71,-0.64 -1.24,-0.64l-1.05,0c-1.03,0 -2.03,0.85 -2.13,1.83l-0.28,2.47l-1.54,-1.13c-0.33,-0.24 -0.79,-0.33 -1.27,-0.24c-0.6,0.11 -1.17,0.5 -1.5,1.03l-0.55,0.88c-0.31,0.51 -0.37,1.06 -0.16,1.52c0.19,0.41 0.57,0.68 1.05,0.75l2.01,0.31l-1.91,1.28c-0.56,0.38 -0.91,0.96 -0.94,1.54c-0.02,0.43 0.14,0.82 0.46,1.09l0.6,0.51c0.31,0.26 0.74,0.38 1.2,0.33c0.6,-0.08 1.19,-0.43 1.53,-0.91l1.51,-1.77l0.45,1.57c0.07,0.43 0.34,0.79 0.74,0.97c0.21,0.11 0.44,0.15 0.68,0.15c0.34,0 0.71,-0.1 1.05,-0.29l0.75,-0.43c0.6,-0.35 1.02,-0.95 1.08,-1.55c0.04,-0.46 -0.1,-0.87 -0.43,-1.15l-1.48,-1.32l3.03,-0.36c1.07,-0.13 1.98,-1.09 1.92,-2.08l-0.05,-0.89l0.01,-0.02z" fill="#361F0F" id="svg_3"/>
 </g>
</svg>